<?xml version="1.0" standalone="no"?>
<!DOCTYPE svg PUBLIC "-//W3C//DTD SVG 1.1//EN" "http://www.w3.org/Graphics/SVG/1.1/DTD/svg11.dtd" >
<svg xmlns="http://www.w3.org/2000/svg" width="100%" height="100%">
<metadata>
Created by FontXChange 20110222 at Wed May 14 15:05:32 2014
 By Hoang Nghiem
Typeface (c)NALGames. 2013. All Rights Reserved
</metadata>
<defs>
<font id="TheRaveIsInYourPants" horiz-adv-x="2300" >
  <font-face 
    font-family="TheRaveIsInYourPants"
    font-weight="400"
    font-stretch="normal"
    units-per-em="2048"
    panose-1="2 0 5 0 0 0 0 0 0 0"
    ascent="1638"
    descent="-410"
    x-height="1400"
    cap-height="1400"
    bbox="0 -300 2502 1500"
    underline-thickness="150"
    underline-position="-142"
    unicode-range="U+001D-F002"
  />
<missing-glyph horiz-adv-x="2400" 
d="M1100 600l-759 460q-41 18 -41 -60v-1000h-300v1300q0 100 100 100q36 0 100 -41l900 -559l759 -460q41 -18 41 60v1000h300v-1300q0 -100 -100 -100q-36 0 -100 41z" />
    <glyph glyph-name=".notdef" horiz-adv-x="2400" 
d="M1100 600l-759 460q-41 18 -41 -60v-1000h-300v1300q0 100 100 100q36 0 100 -41l900 -559l759 -460q41 -18 41 60v1000h300v-1300q0 -100 -100 -100q-36 0 -100 41z" />
    <glyph glyph-name=".null" horiz-adv-x="0" 
 />
    <glyph glyph-name=".null" horiz-adv-x="0" 
 />
    <glyph glyph-name="nonmarkingreturn" horiz-adv-x="508" 
 />
    <glyph glyph-name="space" unicode=" " horiz-adv-x="508" 
 />
    <glyph glyph-name="space" unicode="&#xa0;" horiz-adv-x="508" 
 />
    <glyph glyph-name="quotedbl" unicode="&#x22;" horiz-adv-x="900" 
d="M0 900v500h300v-200zM400 900v500h300v-200z" />
    <glyph glyph-name="dollar" unicode="$" 
d="M1500 600v-400h100q200 0 200 200t-200 200h-100zM600 1200h-100q-200 0 -200 -200t200 -200h100v400zM1500 800h100q500 0 500 -400t-500 -400h-100v-100h-300v100h-300v-100h-300v100h-600v200h600v400h-100q-500 0 -500 400t500 400h100v100h300v-100h300v100h300
v-100h600v-200h-600v-400zM900 800h300v400h-300v-400zM1200 600h-300v-400h300v400z" />
    <glyph glyph-name="ampersand" unicode="&#x26;" 
d="M1800 200h300v-200h-1600q-500 0 -500 400q0 200 125 300q-125 100 -125 300q0 400 500 400h800v-200h-800q-200 0 -200 -200t200 -200h1000v200h300v-200h300v-200h-300v-400zM1500 600h-1000q-200 0 -200 -200t200 -200h1000v400z" />
    <glyph glyph-name="quotesingle" unicode="'" horiz-adv-x="500" 
d="M0 900v500h300v-200z" />
    <glyph glyph-name="comma" unicode="," horiz-adv-x="500" 
d="M0 -300v500h300v-200z" />
    <glyph glyph-name="hyphen" unicode="-" horiz-adv-x="1000" 
d="M800 800v-200h-800v200h800z" />
    <glyph glyph-name="hyphen" unicode="&#xad;" horiz-adv-x="1000" 
d="M800 800v-200h-800v200h800z" />
    <glyph glyph-name="period" unicode="." horiz-adv-x="500" 
d="M0 0v200h300v-200h-300z" />
    <glyph glyph-name="slash" unicode="/" 
d="M14 0l1786 1400h300l-1799 -1400h-287z" />
    <glyph glyph-name="zero" unicode="0" 
d="M500 0q-500 0 -500 400v600q0 400 500 400h1100q500 0 500 -400v-600q0 -400 -500 -400h-1100zM500 1200q-200 0 -200 -200v-600q0 -200 200 -200h1100q200 0 200 200v600q0 200 -200 200h-1100z" />
    <glyph glyph-name="one" unicode="1" horiz-adv-x="900" 
d="M400 0v1000q0 200 -200 200h-200v200h200q500 0 500 -400v-1000h-300z" />
    <glyph glyph-name="two" unicode="2" 
d="M1600 800q200 0 200 200t-200 200h-1600v200h1600q500 0 500 -400t-500 -400h-1100q-200 0 -200 -200t200 -200h1600v-200h-1600q-500 0 -500 400t500 400h1100z" />
    <glyph glyph-name="three" unicode="3" 
d="M2100 400q0 -400 -500 -400h-1600v200h1600q200 0 200 200t-200 200h-1600v200h1600q200 0 200 200t-200 200h-1600v200h1600q500 0 500 -400q0 -200 -125 -300q125 -100 125 -300z" />
    <glyph glyph-name="four" unicode="4" horiz-adv-x="2200" 
d="M473 400h1127v600q0 78 -41 60l-759 -460zM145 200q-345 0 155 300l500 300l900 559q64 41 100 41q100 0 100 -100v-900h100v-200h-100v-200h-300v200h-1455z" />
    <glyph glyph-name="five" unicode="5" 
d="M1600 800q500 0 500 -400t-500 -400h-1600v200h1600q200 0 200 200t-200 200h-1600v800h2100v-200h-1800v-400h1300z" />
    <glyph glyph-name="six" unicode="6" 
d="M300 800h1300q500 0 500 -400t-500 -400h-1100q-500 0 -500 400v600q0 400 500 400h1600v-200h-1600q-200 0 -200 -200v-200zM500 200h1100q200 0 200 200t-200 200h-1300v-200q0 -200 200 -200z" />
    <glyph glyph-name="seven" unicode="7" 
d="M2100 1400l-1799 -1400h-287l1531 1200h-1545v200h2100z" />
    <glyph glyph-name="eight" unicode="8" 
d="M1600 1400q500 0 500 -400q0 -200 -125 -300q125 -100 125 -300q0 -400 -500 -400h-1100q-500 0 -500 400q0 200 125 300q-125 100 -125 300q0 400 500 400h1100zM1600 200q200 0 200 200t-200 200h-1100q-200 0 -200 -200t200 -200h1100zM1600 800q200 0 200 200
t-200 200h-1100q-200 0 -200 -200t200 -200h1100z" />
    <glyph glyph-name="nine" unicode="9" 
d="M1800 600h-1300q-500 0 -500 400t500 400h1100q500 0 500 -400v-600q0 -400 -500 -400h-1600v200h1600q200 0 200 200v200zM1600 1200h-1100q-200 0 -200 -200t200 -200h1300v200q0 200 -200 200z" />
    <glyph glyph-name="colon" unicode=":" horiz-adv-x="500" 
d="M0 300v200h300v-200h-300zM0 900v200h300v-200h-300z" />
    <glyph glyph-name="semicolon" unicode=";" horiz-adv-x="500" 
d="M0 0v500h300v-200zM0 900v200h300v-200h-300z" />
    <glyph glyph-name="semicolon" unicode="&#x37e;" horiz-adv-x="500" 
d="M0 0v500h300v-200zM0 900v200h300v-200h-300z" />
    <glyph glyph-name="at" unicode="@" 
d="M500 0q-500 0 -500 400v600q0 400 500 400h1100q500 0 500 -400v-600q0 -400 -500 -400h-1100zM500 1200q-200 0 -200 -200v-600q0 -200 200 -200h1100q200 0 200 200v600q0 200 -200 200h-1100zM1012 892q-11 24 -42 -21l-238 -342h542zM1645 300h-194l-86 114h-703
l-79 -114h-137l515 743q40 57 90 57q18 0 34 -23z" />
    <glyph glyph-name="A" unicode="A" 
d="M990 1036q-19 42 -73 -36l-417 -600h949zM2100 0h-340l-150 200h-1230l-138 -200h-240l902 1300q69 100 157 100q32 0 59 -41z" />
    <glyph glyph-name="B" unicode="B" 
d="M2100 400q0 -400 -500 -400h-1600v200h1600q200 0 200 200t-200 200h-1600v200h1600q200 0 200 200t-200 200h-1600v200h1600q500 0 500 -400q0 -200 -125 -300q125 -100 125 -300z" />
    <glyph glyph-name="C" unicode="C" 
d="M0 1000q0 400 500 400h1600v-200h-1600q-200 0 -200 -200v-600q0 -200 200 -200h1600v-200h-1600q-500 0 -500 400v600z" />
    <glyph glyph-name="D" unicode="D" 
d="M2100 400q0 -400 -500 -400h-1600v200h1600q200 0 200 200v600q0 200 -200 200h-1600v200h1600q500 0 500 -400v-600z" />
    <glyph glyph-name="E" unicode="E" 
d="M125 700q-125 100 -125 300q0 400 500 400h1600v-200h-1600q-200 0 -200 -200t200 -200h1600v-200h-1600q-200 0 -200 -200t200 -200h1600v-200h-1600q-500 0 -500 400q0 200 125 300z" />
    <glyph glyph-name="F" unicode="F" 
d="M125 700q-125 100 -125 300q0 400 500 400h1600v-200h-1600q-200 0 -200 -200t200 -200h1600v-200h-1600q-200 0 -200 -200v-400h-300v400q0 200 125 300z" />
    <glyph glyph-name="G" unicode="G" 
d="M2100 0h-1600q-500 0 -500 400v600q0 400 500 400h1600v-200h-1600q-200 0 -200 -200v-600q0 -200 200 -200h1300v400h-800v200h1100v-800z" />
    <glyph glyph-name="H" unicode="H" 
d="M300 600v-600h-300v1400h300v-600h1500v600h300v-1400h-300v600h-1500z" />
    <glyph glyph-name="I" unicode="I" horiz-adv-x="500" 
d="M300 1400v-1400h-300v1400h300z" />
    <glyph glyph-name="J" unicode="J" horiz-adv-x="2100" 
d="M1600 1400v-1000q0 -200 -200 -200h-1400v-200h1400q500 0 500 400v1000h-300z" />
    <glyph glyph-name="K" unicode="K" horiz-adv-x="2400" 
d="M1023 600l-823 -559q-64 -41 -100 -41q-100 0 -100 100v1300h300v-1000q0 -78 41 -60l1559 1060h300l-927 -630l927 -770h-436z" />
    <glyph glyph-name="L" unicode="L" horiz-adv-x="2100" 
d="M0 1400v-1000q0 -400 500 -400h1400v200h-1400q-200 0 -200 200v1000h-300z" />
    <glyph glyph-name="M" unicode="M" horiz-adv-x="2600" 
d="M1100 500l-759 560q-41 18 -41 -60v-1000h-300v1300q0 100 100 100q36 0 100 -41l900 -659q100 -56 200 -1v1l900 659q64 41 100 41q100 0 100 -100v-1300h-300v1000q0 78 -41 60l-758 -559v-1q-101 -79 -201 0z" />
    <glyph glyph-name="N" unicode="N" horiz-adv-x="2400" 
d="M1100 600l-759 460q-41 18 -41 -60v-1000h-300v1300q0 100 100 100q36 0 100 -41l900 -559l759 -460q41 -18 41 60v1000h300v-1300q0 -100 -100 -100q-36 0 -100 41z" />
    <glyph glyph-name="O" unicode="O" 
d="M500 0q-500 0 -500 400v600q0 400 500 400h1100q500 0 500 -400v-600q0 -400 -500 -400h-1100zM500 1200q-200 0 -200 -200v-600q0 -200 200 -200h1100q200 0 200 200v600q0 200 -200 200h-1100z" />
    <glyph glyph-name="P" unicode="P" 
d="M300 0h-300v400q0 400 500 400h1100q200 0 200 200t-200 200h-1600v200h1600q500 0 500 -400t-500 -400h-1100q-200 0 -200 -200v-400z" />
    <glyph glyph-name="Q" unicode="Q" 
d="M1200 200h400q200 0 200 200v600q0 200 -200 200h-1100q-200 0 -200 -200v-600q0 -200 200 -200h400v600h300v-600zM500 0q-500 0 -500 400v600q0 400 500 400h1100q500 0 500 -400v-600q0 -400 -500 -400h-1100z" />
    <glyph glyph-name="R" unicode="R" horiz-adv-x="2100" 
d="M723 600h-223q-200 0 -200 -200v-400h-300v400q0 400 500 400h900q200 0 200 200t-200 200h-1400v200h1400q500 0 500 -400t-500 -400h-222l722 -600h-436z" />
    <glyph glyph-name="S" unicode="S" horiz-adv-x="2500" 
d="M0 0v200h800q200 0 200 200v600q0 400 500 400h800v-200h-800q-200 0 -200 -200v-600q0 -400 -500 -400h-800z" />
    <glyph glyph-name="T" unicode="T" horiz-adv-x="1900" 
d="M700 1200h-700v200h1700v-200h-700v-1200h-300v1200z" />
    <glyph glyph-name="U" unicode="U" 
d="M1800 1400h300v-1000q0 -400 -500 -400h-1100q-500 0 -500 400v1000h300v-1000q0 -200 200 -200h1100q200 0 200 200v1000z" />
    <glyph glyph-name="V" unicode="V" 
d="M1112 364q19 -42 73 36l675 1000h240l-902 -1300q-69 -100 -157 -100q-32 0 -59 41l-980 1359h340z" />
    <glyph glyph-name="W" unicode="W" horiz-adv-x="2700" 
d="M1262 494l-235 -394q-59 -100 -135 -100q-27 0 -50 41l-842 1359h355l544 -949q53 -89 101 -5l143 239l-443 715h355l252 -440l263 440h232l-381 -639l178 -310q53 -89 101 -5l570 954h232l-775 -1300q-59 -100 -135 -100q-27 0 -50 41z" />
    <glyph glyph-name="X" unicode="X" 
d="M1005 548l-704 -548h-287l850 667l-864 733h454l645 -550l701 550h300l-860 -669l857 -731h-447z" />
    <glyph glyph-name="Y" unicode="Y" 
d="M900 578q0 64 -74 122l-826 700h454l645 -550l701 550h300l-845 -657q-55 -43 -55 -163v-580h-300v578z" />
    <glyph glyph-name="Z" unicode="Z" horiz-adv-x="2500" 
d="M1500 0q-500 0 -500 400v600q0 200 -200 200h-800v200h800q500 0 500 -400v-600q0 -200 200 -200h800v-200h-800z" />
    <glyph glyph-name="backslash" unicode="\" 
d="M2097 0h-447l-1650 1400h454z" />
    <glyph glyph-name="a" unicode="a" 
d="M990 1036q-19 42 -73 -36l-417 -600h949zM2100 0h-340l-150 200h-1230l-138 -200h-240l902 1300q69 100 157 100q32 0 59 -41z" />
    <glyph glyph-name="b" unicode="b" 
d="M2100 400q0 -400 -500 -400h-1600v200h1600q200 0 200 200t-200 200h-1600v200h1600q200 0 200 200t-200 200h-1600v200h1600q500 0 500 -400q0 -200 -125 -300q125 -100 125 -300z" />
    <glyph glyph-name="c" unicode="c" 
d="M0 1000q0 400 500 400h1600v-200h-1600q-200 0 -200 -200v-600q0 -200 200 -200h1600v-200h-1600q-500 0 -500 400v600z" />
    <glyph glyph-name="d" unicode="d" 
d="M2100 400q0 -400 -500 -400h-1600v200h1600q200 0 200 200v600q0 200 -200 200h-1600v200h1600q500 0 500 -400v-600z" />
    <glyph glyph-name="e" unicode="e" 
d="M125 700q-125 100 -125 300q0 400 500 400h1600v-200h-1600q-200 0 -200 -200t200 -200h1600v-200h-1600q-200 0 -200 -200t200 -200h1600v-200h-1600q-500 0 -500 400q0 200 125 300z" />
    <glyph glyph-name="f" unicode="f" 
d="M125 700q-125 100 -125 300q0 400 500 400h1600v-200h-1600q-200 0 -200 -200t200 -200h1600v-200h-1600q-200 0 -200 -200v-400h-300v400q0 200 125 300z" />
    <glyph glyph-name="g" unicode="g" 
d="M2100 0h-1600q-500 0 -500 400v600q0 400 500 400h1600v-200h-1600q-200 0 -200 -200v-600q0 -200 200 -200h1300v400h-800v200h1100v-800z" />
    <glyph glyph-name="h" unicode="h" 
d="M300 600v-600h-300v1400h300v-600h1500v600h300v-1400h-300v600h-1500z" />
    <glyph glyph-name="i" unicode="i" horiz-adv-x="500" 
d="M300 1400v-1400h-300v1400h300z" />
    <glyph glyph-name="j" unicode="j" horiz-adv-x="2100" 
d="M1600 1400v-1000q0 -200 -200 -200h-1400v-200h1400q500 0 500 400v1000h-300z" />
    <glyph glyph-name="k" unicode="k" horiz-adv-x="2400" 
d="M1023 600l-823 -559q-64 -41 -100 -41q-100 0 -100 100v1300h300v-1000q0 -78 41 -60l1559 1060h300l-927 -630l927 -770h-436z" />
    <glyph glyph-name="l" unicode="l" horiz-adv-x="2100" 
d="M0 1400v-1000q0 -400 500 -400h1400v200h-1400q-200 0 -200 200v1000h-300z" />
    <glyph glyph-name="m" unicode="m" horiz-adv-x="2600" 
d="M1100 500l-759 560q-41 18 -41 -60v-1000h-300v1300q0 100 100 100q36 0 100 -41l900 -659q100 -56 200 -1v1l900 659q64 41 100 41q100 0 100 -100v-1300h-300v1000q0 78 -41 60l-758 -559v-1q-101 -79 -201 0z" />
    <glyph glyph-name="n" unicode="n" horiz-adv-x="2400" 
d="M1100 600l-759 460q-41 18 -41 -60v-1000h-300v1300q0 100 100 100q36 0 100 -41l900 -559l759 -460q41 -18 41 60v1000h300v-1300q0 -100 -100 -100q-36 0 -100 41z" />
    <glyph glyph-name="o" unicode="o" 
d="M500 0q-500 0 -500 400v600q0 400 500 400h1100q500 0 500 -400v-600q0 -400 -500 -400h-1100zM500 1200q-200 0 -200 -200v-600q0 -200 200 -200h1100q200 0 200 200v600q0 200 -200 200h-1100z" />
    <glyph glyph-name="p" unicode="p" 
d="M300 0h-300v400q0 400 500 400h1100q200 0 200 200t-200 200h-1600v200h1600q500 0 500 -400t-500 -400h-1100q-200 0 -200 -200v-400z" />
    <glyph glyph-name="q" unicode="q" 
d="M1200 200h400q200 0 200 200v600q0 200 -200 200h-1100q-200 0 -200 -200v-600q0 -200 200 -200h400v600h300v-600zM500 0q-500 0 -500 400v600q0 400 500 400h1100q500 0 500 -400v-600q0 -400 -500 -400h-1100z" />
    <glyph glyph-name="r" unicode="r" horiz-adv-x="2100" 
d="M723 600h-223q-200 0 -200 -200v-400h-300v400q0 400 500 400h900q200 0 200 200t-200 200h-1400v200h1400q500 0 500 -400t-500 -400h-222l722 -600h-436z" />
    <glyph glyph-name="s" unicode="s" horiz-adv-x="2500" 
d="M0 0v200h800q200 0 200 200v600q0 400 500 400h800v-200h-800q-200 0 -200 -200v-600q0 -400 -500 -400h-800z" />
    <glyph glyph-name="t" unicode="t" horiz-adv-x="1900" 
d="M700 1200h-700v200h1700v-200h-700v-1200h-300v1200z" />
    <glyph glyph-name="u" unicode="u" 
d="M1800 1400h300v-1000q0 -400 -500 -400h-1100q-500 0 -500 400v1000h300v-1000q0 -200 200 -200h1100q200 0 200 200v1000z" />
    <glyph glyph-name="v" unicode="v" 
d="M1112 364q19 -42 73 36l675 1000h240l-902 -1300q-69 -100 -157 -100q-32 0 -59 41l-980 1359h340z" />
    <glyph glyph-name="w" unicode="w" horiz-adv-x="2700" 
d="M1262 494l-235 -394q-59 -100 -135 -100q-27 0 -50 41l-842 1359h355l544 -949q53 -89 101 -5l143 239l-443 715h355l252 -440l263 440h232l-381 -639l178 -310q53 -89 101 -5l570 954h232l-775 -1300q-59 -100 -135 -100q-27 0 -50 41z" />
    <glyph glyph-name="x" unicode="x" 
d="M1005 548l-704 -548h-287l850 667l-864 733h454l645 -550l701 550h300l-860 -669l857 -731h-447z" />
    <glyph glyph-name="y" unicode="y" 
d="M900 578q0 64 -74 122l-826 700h454l645 -550l701 550h300l-845 -657q-55 -43 -55 -163v-580h-300v578z" />
    <glyph glyph-name="z" unicode="z" horiz-adv-x="2500" 
d="M1500 0q-500 0 -500 400v600q0 200 -200 200h-800v200h800q500 0 500 -400v-600q0 -200 200 -200h800v-200h-800z" />
    <glyph glyph-name="uniF001" unicode="&#xf001;" horiz-adv-x="1073" 
 />
    <glyph glyph-name="uniF001" unicode="&#xfb01;" horiz-adv-x="1073" 
 />
    <glyph glyph-name="uniF002" unicode="&#xf002;" horiz-adv-x="1081" 
 />
    <glyph glyph-name="uniF002" unicode="&#xfb02;" horiz-adv-x="1081" 
 />
    </font>
</defs>
</svg>
